# xmcd
#
# Track frame offsets:
#	150
#	15272
#	31497
#	50602
#	68965
#	85525
#	102382
#	122872
#	149322
#	163682
#	179867
#	198237
#	213762
#	231937
#	251390
#
# Disc length: 3524 seconds
# Revision: 0
# Processed by: cddbd v1.5.2PL0 Copyright (c) Steve Scherf et al.
# Submitted via: dBpowerAMP V12.0
#
DISCID=ce0dc20f
DTITLE=Danilo Caymmi - Mistura Brasileira
DYEAR=1997
DGENRE=Brazil
TTITLE0=Molambo
TTITLE1=Pot-pourri "Por Acaso" Aos Pés da Cruz - Eu Não Tenho Onde Morar - Se Acaso Você Chegasse
TTITLE2=Retalhos de cetim
TTITLE3=Andança
TTITLE4=Pot-pourri "Segredos da Bahia" Vatapá - O Que É Que A Baiana Tem? - Maracangalha
TTITLE5=Pode Ser
TTITLE6=Você É Linda
TTITLE7=Pot-pourri "Teu Nome" Carolina - Maria - Dora
TTITLE8=O Côncavo e o Convexo
TTITLE9=Flor de Lis
TTITLE10=Caminho do Meu Coração
TTITLE11=Casaco Marron
TTITLE12=Fiz Uma Viagem
TTITLE13=Pot-pourri "Tom Sobre Tom" A Felicidade - Chega de Saudade - O Morro Não Tem Vez
TTITLE14=Mãe Stella
EXTD=
EXTT0=
EXTT1=
EXTT2=
EXTT3=
EXTT4=
EXTT5=
EXTT6=
EXTT7=
EXTT8=
EXTT9=
EXTT10=
EXTT11=
EXTT12=
EXTT13=
EXTT14=
PLAYORDER=
